<svg width="24" height="24" data-name="Layer 1" version="1.1" viewBox="0 0 24 24" xmlns="http://www.w3.org/2000/svg">
 <defs>
  <style>.cls-1{opacity:0.98;isolation:isolate;}.cls-2{fill:#ff00af;}.cls-3{fill:#fff;}</style>
 </defs>
 <title>dfi</title>
 <g class="cls-1" transform="matrix(.5882 0 0 .5882 2.6796 2.5446)">
  <path class="cls-2" d="m16 32a16 16 0 1 1 16-16 16 16 0 0 1-16 16z"/>
 </g>
 <path class="cls-3" d="m12.091 5.3679a6.5881 6.5881 0 0 1 0.11176 13.176h-0.11176v-5.5467l-0.84113 0.84113-0.11176 2.0881 0.8823 2.6175a5.882 5.882 0 0 1-1.5058-0.19999l-0.12352-0.0353-0.4235-1.2646-1.1764 0.5882a6.4996 6.4996 0 0 1-1.1764-0.89994l-0.13529-0.0706 2.2116-1.1176 0.07647-1.2352-1.2646 0.07646-1.1176 2.1822a7.0114 7.0114 0 0 1-0.91172-1.1764l-0.076466-0.11176 0.5882-1.1764-1.247-0.44703a7.1584 7.1584 0 0 1-0.21763-1.4823v-0.12352l2.6351 0.87642 2.0881-0.11176 0.84113-0.85877-0.84113-0.82348-2.0881-0.11176-2.6528 0.86466a6.6349 6.6349 0 0 1 0.18234-1.5058l0.035292-0.12352 1.2646-0.4235-0.5882-1.1764a6.4996 6.4996 0 0 1 0.89995-1.1764l0.08823-0.13529 1.1176 2.2116 1.2646 0.076466-0.09411-1.2646-2.2116-1.1176a7.0114 7.0114 0 0 1 1.1764-0.91171l0.11176-0.076466 1.1764 0.5882 0.42351-1.2646a7.1584 7.1584 0 0 1 1.4823-0.21763h0.12352l-0.85289 2.6351 0.11176 2.0881 0.84113 0.84113c0.0353-0.01764 0.0353-5.5644 0.0353-5.5644zm1.4646 1.6823v9.8288a5.135 5.135 0 0 0 0.07058-9.8112z" style="stroke-width:.5882"/>
</svg>
