<?xml version="1.0" encoding="utf-8"?>
<!-- Generator: Adobe Illustrator 26.1.0, SVG Export Plug-In . SVG Version: 6.00 Build 0)  -->
<svg version="1.1" id="Layer_1" xmlns="http://www.w3.org/2000/svg" xmlns:xlink="http://www.w3.org/1999/xlink" x="0px" y="0px"
	 viewBox="0 0 1000 1000" style="enable-background:new 0 0 1000 1000;" xml:space="preserve">
<style type="text/css">
	.st0{fill:#FF00AF;}
	.st1{fill:#1C1C1C;}
	.st2{fill-rule:evenodd;clip-rule:evenodd;fill:#FF00AF;}
</style>
<g>
	<g>
		<path class="st0" d="M134.15,587.61H88.91v110.3h45.24c18.18,0,32.12-4.88,41.83-14.64c9.71-9.76,14.56-23.26,14.56-40.51
			c0-17.25-4.86-30.75-14.56-40.51C166.27,592.49,152.32,587.61,134.15,587.61z M155.6,667.48c-5.11,5.53-12.42,8.29-21.92,8.29
			h-18.59v-66h18.59c9.5,0,16.81,2.76,21.92,8.29c5.11,5.53,7.67,13.76,7.67,24.71C163.27,653.72,160.72,661.95,155.6,667.48z"/>
		<path class="st0" d="M239.96,616.12c-12.5,0-22.46,3.82-29.9,11.47c-7.54,7.54-11.31,17.66-11.31,30.36
			c0,12.6,3.82,22.72,11.47,30.36c7.64,7.65,17.66,11.47,30.05,11.47c9.81,0,18.23-2.4,25.25-7.21c7.02-4.8,11.62-11.33,13.79-19.6
			h-22.93c-2.89,5.99-8.26,8.99-16.11,8.99c-4.96,0-9.04-1.45-12.24-4.34c-3.2-2.89-5.22-7.07-6.04-12.55h59.18v-4.8
			c0-13.43-3.72-24.17-11.15-32.22C262.37,620.1,252.35,616.12,239.96,616.12z M222.14,649.74c1.75-10.54,7.59-15.8,17.51-15.8
			c4.85,0,8.83,1.4,11.93,4.18c3.1,2.79,5.06,6.66,5.89,11.62H222.14z"/>
		<polygon class="st0" points="289.38,697.92 315.56,697.92 315.56,653.15 366.22,653.15 366.22,630.99 315.56,630.99 
			315.56,611.01 370.4,611.01 370.4,587.61 289.38,587.61 		"/>
		<rect x="380.94" y="587.61" class="st0" width="24.17" height="20.45"/>
		<rect x="380.94" y="617.98" class="st0" width="24.17" height="79.94"/>
	</g>
	<g>
		<path class="st1" d="M515.82,639.2c9.81-4.65,14.72-12.44,14.72-23.39c0-8.47-3.12-15.28-9.37-20.45
			c-6.25-5.16-15.47-7.75-27.65-7.75h-52.36v110.3h53.91c13.12,0,23.05-2.81,29.82-8.44c6.76-5.63,10.15-13.5,10.15-23.63
			c0-5.78-1.7-11.13-5.11-16.03C526.51,644.91,521.81,641.37,515.82,639.2z M467.33,608.53h24.48c4.02,0,7.15,1.03,9.37,3.1
			c2.22,2.07,3.33,4.86,3.33,8.37c0,3.72-1.11,6.66-3.33,8.83c-2.22,2.17-5.35,3.25-9.37,3.25h-24.48V608.53z M504.28,673.75
			c-2.53,2.17-6.12,3.25-10.77,3.25h-26.18v-25.1h26.18c9.71,0,14.56,4.18,14.56,12.55C508.07,668.48,506.81,671.58,504.28,673.75z"
			/>
		<path class="st1" d="M569.26,632.85v-14.87h-23.55v79.94h24.17v-37.18c0-14.46,7.07-21.69,21.23-21.69h6.2v-22
			c-3.1-0.21-4.86-0.31-5.27-0.31C580.57,616.74,572.98,622.11,569.26,632.85z"/>
		<g>
			<rect x="607.06" y="587.61" class="st1" width="24.17" height="20.45"/>
			<rect x="607.07" y="617.98" class="st1" width="24.16" height="79.94"/>
		</g>
		<path class="st1" d="M700.33,627.58c-5.48-7.64-13.27-11.47-23.39-11.47c-10.74,0-19.21,3.77-25.41,11.31
			c-6.3,7.54-9.45,17.71-9.45,30.52c0,12.81,3.15,22.98,9.45,30.52c6.2,7.54,14.66,11.31,25.41,11.31
			c10.63,0,18.64-4.08,24.01-12.24v10.38h23.55v-110.3h-24.17V627.58z M683.6,680.41c-11.36,0-17.04-7.28-17.04-21.84
			c0-7.44,1.5-13.14,4.5-17.12c3-3.97,7.18-5.96,12.55-5.96c11.46,0,17.2,7.49,17.2,22.46C700.79,672.93,695.06,680.41,683.6,680.41
			z"/>
		<path class="st1" d="M794.05,628.51c-5.27-8.26-13.27-12.39-24.01-12.39c-10.43,0-18.85,3.67-25.25,11
			c-6.41,7.54-9.61,17.2-9.61,28.97c0,11.88,3.26,21.53,9.76,28.97c6.51,7.44,15.03,11.15,25.56,11.15
			c10.22,0,17.86-3.77,22.93-11.31v11.46c0,4.96-1.4,8.81-4.18,11.54c-2.79,2.73-6.82,4.11-12.09,4.11
			c-9.61,0-14.72-3.72-15.34-11.16h-23.86c0.51,9.09,4.13,16.24,10.84,21.46c6.71,5.21,16.01,7.82,27.89,7.82
			c12.91,0,22.95-3.07,30.13-9.22c7.18-6.15,10.77-14.64,10.77-25.49v-77.46h-23.55V628.51z M789.41,671.5
			c-3,3.56-7.23,5.35-12.7,5.35c-5.37,0-9.55-1.78-12.55-5.35c-3-3.56-4.5-8.6-4.5-15.11c0-6.61,1.5-11.75,4.5-15.41
			c3-3.66,7.18-5.5,12.55-5.5c5.58,0,9.84,1.76,12.78,5.27c2.94,3.51,4.41,8.62,4.41,15.34C793.9,662.8,792.4,667.94,789.41,671.5z"
			/>
		<path class="st1" d="M910.71,660.27c0-13.43-3.72-24.17-11.15-32.22c-7.64-7.95-17.66-11.93-30.05-11.93
			c-12.5,0-22.46,3.82-29.9,11.47c-7.54,7.54-11.31,17.66-11.31,30.36c0,12.6,3.82,22.72,11.47,30.36
			c7.64,7.65,17.66,11.47,30.05,11.47c9.81,0,18.23-2.4,25.25-7.21c7.02-4.8,11.62-11.33,13.79-19.6h-22.93
			c-2.89,5.99-8.26,8.99-16.11,8.99c-4.96,0-9.04-1.45-12.24-4.34c-3.2-2.89-5.22-7.07-6.04-12.55h59.18V660.27z M851.69,649.74
			c1.75-10.54,7.59-15.8,17.51-15.8c4.85,0,8.83,1.4,11.93,4.18c3.1,2.79,5.06,6.66,5.89,11.62H851.69z"/>
	</g>
	<g>
		<path class="st1" d="M264.14,541.65c0.01-0.2,0-0.41,0-0.61c3.94-127.47,108.89-228.48,235.55-228.48c2.45,0,4.92,0.04,7.39,0.11
			c62.95,1.94,121.36,28.29,164.5,74.17c39.93,42.48,62.29,97,63.85,154.8h41.97c-1.57-68.53-27.96-133.2-75.26-183.53
			c-50.81-54.05-119.62-85.07-193.76-87.37c-2.92-0.09-5.8-0.13-8.7-0.13c-149.18,0-272.81,118.98-277.45,269.12
			c-0.02,0.64,0,1.27-0.01,1.91H264.14z"/>
	</g>
	<path class="st2" d="M443.93,517.77l23.87,23.88h75.65V396.21l2.07,0.63c61.69,19.4,106.63,76.92,107.1,144.8h43.67
		c-0.59-108.05-88.34-195.47-196.53-195.47v165.67l-24.95-24.95l-3.19-62.28l26.02-78.33l-3.84,0.08c-15,0.48-29.9,2.69-44.4,6.57
		l-12.59,37.86l-35.69-17.9l-3.24,1.93c-12.86,7.78-24.79,17-35.55,27.5l66.1,33.12l1.93,37.9l-37.89-1.94l-33.13-66.09l-2.59,2.7
		c-10.29,10.97-19.29,23.08-26.84,36.09l17.91,35.7l-37.88,12.58l-0.91,3.57c-3.53,14.34-5.57,29.27-5.73,44.66l78.34-26.02
		L443.93,517.77z"/>
</g>
</svg>
