<?xml version="1.0" encoding="UTF-8" standalone="no"?>
<svg
   width="850.39001"
   height="350.39001"
   version="1.1"
   viewBox="0 0 850.39 350.39"
   id="svg22">
  <defs
     id="defs26" />
  <style
     type="text/css"
     id="style2">.st0{fill:#FF07B5;}</style>
  <g
     transform="translate(-6.3397,-258.21)"
     id="g20">
    <path
       d="m 829.67,534.23 c -10.48,-1.22 -20.97,-2.35 -31.43,-3.66 -36.24,-4.56 -72.76,-7.36 -109.17,-10.87 -6.86,-0.66 -12.4,1.26 -18.11,3.42 -69.62,26.41 -139.24,52.82 -208.87,79.21 -6.65,2.52 -7.04,2.34 -7.05,-3.52 -0.04,-26.69 -0.03,-53.39 -0.05,-80.08 -0.01,-6.81 -0.03,-6.83 -8.96,-6.87 -6.77,-0.03 -13.56,0.2 -20.31,-0.05 -5.68,-0.21 -7.42,1.55 -7.39,5.86 0.17,25.1 0.04,50.21 0.01,75.31 0,1.27 -0.08,2.55 0.01,3.81 0.24,3.42 -1.88,3.8 -5.34,2.55 -9.3,-3.35 -18.62,-6.66 -27.89,-10.04 -62.35,-22.73 -124.69,-45.46 -187,-68.26 -3.7,-1.36 -7.37,-1.83 -11.32,-1.46 -28.71,2.66 -57.45,5.17 -86.12,8.04 -19.12,1.91 -38.15,4.34 -57.21,6.53 -0.93,0.11 -1.95,0.57 -3.48,-0.86 263.68,-66.32 526.76,-66.49 789.94,-0.52 -0.09,0.49 -0.17,0.97 -0.26,1.46 z M 639.53,517.6 c -0.13,-0.38 -0.26,-0.76 -0.39,-1.15 -1.78,-0.21 -3.56,-0.5 -5.35,-0.62 -50.52,-3.52 -101.14,-4.54 -151.84,-4.05 -5.54,0.05 -6.97,1.67 -6.93,5.67 0.18,18.9 0.04,37.81 0.08,56.71 0.01,5.72 0.24,5.81 6.64,3.38 44.74,-16.98 89.48,-33.98 134.21,-50.98 7.86,-2.98 15.72,-5.97 23.58,-8.96 z m -403.24,-1.5 c -0.11,0.36 -0.22,0.72 -0.33,1.09 1.02,0.47 2,1.01 3.07,1.4 51.18,18.69 102.38,37.34 153.52,56.1 4.73,1.73 6.01,0.9 5.98,-2.95 -0.14,-18.42 -0.18,-36.85 -0.05,-55.27 0.03,-3.65 -2,-4.6 -6.3,-4.62 -42.25,-0.19 -84.5,-0.28 -126.67,2.33 -9.73,0.59 -19.47,1.28 -29.22,1.92 z"
       id="path4"
       style="stroke:#000000;stroke-width:4.9;stroke-miterlimit:4;stroke-dasharray:none;stroke-opacity:1" />
    <path
       class="st0"
       d="m 68.44,487.08 c -1.72,-1.1 -3.42,-1.96 -4.86,-3.14 -5.62,-4.63 -11.14,-9.38 -16.72,-14.05 -1.02,-0.85 -1.21,-1.76 -0.91,-3.03 1.62,-6.93 3.14,-13.88 4.77,-20.8 0.4,-1.69 -0.45,-1.97 -1.8,-2.07 -6.98,-0.52 -13.95,-1.11 -20.93,-1.61 -1.29,-0.09 -2.05,-0.57 -2.65,-1.74 -3.31,-6.45 -6.25,-13.03 -8.32,-19.99 -0.56,-1.89 -1.32,-3.73 -2.11,-5.9 3.47,0.22 6.55,0.36 9.62,0.6 9.08,0.72 18.15,1.48 27.23,2.22 4.23,0.35 8.46,0.7 12.7,1.01 0.73,0.05 1.52,0.06 2.21,-0.15 10.45,-3.12 20.89,-6.27 31.33,-9.42 0.16,-0.05 0.32,-0.15 0.49,-0.16 3.88,-0.33 5.89,-2.83 7.61,-6.03 2.37,-4.39 5.07,-8.6 7.72,-12.84 0.82,-1.3 0.56,-1.95 -0.71,-2.71 -5.33,-3.16 -10.59,-6.45 -15.94,-9.57 -0.89,-0.52 -2.19,-0.76 -3.2,-0.58 -11.79,2.2 -23.58,4.44 -35.32,6.87 -1.87,0.39 -3.62,1.63 -5.3,2.69 -11.8,7.39 -23.57,14.84 -35.35,22.27 -1.16,0.73 -2.32,1.45 -3.79,2.38 -0.23,-0.92 -0.45,-1.6 -0.56,-2.29 -1.25,-8.39 -2.48,-16.79 -2.4,-25.31 0.01,-1.31 0.39,-2.2 1.6,-2.94 5.91,-3.63 11.77,-7.35 17.63,-11.06 1.88,-1.19 1.86,-1.37 0.39,-3.08 -4.63,-5.4 -9.24,-10.81 -13.81,-16.27 -0.4,-0.47 -0.66,-1.39 -0.49,-1.95 2.61,-8.78 6.17,-17.16 10.71,-25.11 0.14,-0.24 0.34,-0.45 0.61,-0.8 0.38,0.34 0.74,0.59 1.02,0.91 8.98,10.52 17.98,21.02 26.88,31.59 1.28,1.52 2.44,1.93 4.41,1.5 6.22,-1.35 12.51,-2.43 18.76,-3.67 2.18,-0.43 2.25,-0.58 1.64,-2.61 -1.96,-6.54 -3.97,-13.07 -5.9,-19.62 -0.37,-1.26 -1.29,-1.47 -2.31,-1.7 -7.78,-1.76 -15.56,-3.52 -23.33,-5.29 -5.99,-1.36 -11.97,-2.72 -17.96,-4.09 -0.32,-0.07 -0.63,-0.21 -1.29,-0.43 1.33,-2.02 2.43,-4.02 3.84,-5.76 4.12,-5.07 8.4,-10.02 12.55,-15.07 1.38,-1.68 2.84,-1.99 4.96,-1.45 6.45,1.64 12.96,3.04 19.45,4.51 1.89,0.43 2.09,0.23 2.26,-1.84 0.57,-7.15 1.12,-14.3 1.76,-21.44 0.05,-0.61 0.54,-1.42 1.06,-1.72 8.04,-4.53 16.7,-7.56 25.44,-10.39 0.2,-0.07 0.44,-0.02 0.95,-0.03 -0.19,2.62 -0.36,5.17 -0.56,7.71 -1.01,12.87 -1.92,25.75 -3.1,38.6 -0.32,3.45 0.32,6.54 1.32,9.76 2.96,9.54 5.78,19.12 8.58,28.71 0.66,2.25 1.68,3.91 3.86,5.11 4.81,2.67 9.45,5.66 14.16,8.51 0.52,0.32 1.1,0.54 2.07,1.01 -0.1,-1.05 -0.08,-1.75 -0.24,-2.4 -7.78,-31.61 -15.58,-63.22 -23.37,-94.84 -0.78,-3.16 -0.78,-3.19 2.38,-3.67 7.6,-1.15 15.18,-2.43 22.9,-2.56 12.07,-0.21 23.92,1.21 35.55,4.49 11.8,3.32 22.87,8.25 33.16,14.9 11.23,7.25 21.02,16.08 29.4,26.52 7.38,9.2 13.28,19.28 17.69,30.17 3.54,8.74 6.02,17.79 7.46,27.16 1.96,12.7 1.98,25.36 -0.02,38.03 -1.99,12.62 -5.92,24.63 -11.7,36.02 -7.99,15.74 -18.9,29.12 -32.66,40.15 -8.91,7.15 -18.63,12.98 -29.27,17.2 -4.58,1.82 -9.25,3.41 -13.89,5.07 -0.96,0.34 -1.98,0.5 -3.35,0.84 -8.21,-33.32 -16.39,-66.52 -24.58,-99.72 -0.19,-0.01 -0.37,-0.02 -0.56,-0.03 -0.32,0.44 -0.67,0.86 -0.96,1.32 -3.21,5.31 -6.43,10.6 -9.56,15.95 -0.45,0.77 -0.7,1.87 -0.54,2.73 1.91,10.21 4.28,20.35 5.77,30.63 0.95,6.51 4.62,11.38 7.86,16.59 6.6,10.63 13.31,21.18 19.97,31.76 0.17,0.28 0.28,0.6 0.45,0.95 -0.25,0.17 -0.42,0.37 -0.61,0.4 -8.94,1.57 -17.9,2.83 -27.01,2.77 -1.16,-0.01 -1.91,-0.41 -2.52,-1.4 -3.62,-5.85 -7.3,-11.67 -10.94,-17.51 -1.41,-2.26 -1.49,-2.3 -3.54,-0.55 -5.2,4.43 -10.42,8.84 -15.58,13.31 -1.04,0.9 -1.96,1.01 -3.27,0.59 -8.34,-2.67 -16.36,-6.03 -23.94,-10.42 -0.33,-0.19 -0.62,-0.45 -1.12,-0.83 1.57,-1.37 3.01,-2.64 4.47,-3.89 9.6,-8.2 19.19,-16.4 28.81,-24.57 0.96,-0.81 1.23,-1.61 0.98,-2.84 -1.29,-6.41 -2.49,-12.84 -3.73,-19.27 -0.49,-2.53 -0.56,-2.62 -3,-1.9 -6.49,1.92 -12.99,3.85 -19.44,5.92 -0.7,0.22 -1.4,1.3 -1.59,2.11 -1.33,5.46 -2.53,10.96 -3.77,16.44 -1.86,8.23 -3.71,16.46 -5.58,24.68 -0.09,0.42 -0.27,0.82 -0.48,1.45 z M 159,377.25 c 7.1,28.82 14.2,57.63 21.31,86.45 0.62,2.5 0.83,2.59 3.03,1.25 0.15,-0.09 0.29,-0.19 0.43,-0.28 10.86,-6.95 20.08,-15.62 27.38,-26.27 14.48,-21.13 19.86,-44.43 15.95,-69.7 -2.61,-16.84 -9.36,-32.02 -20.29,-45.15 -17.47,-20.98 -39.95,-32.52 -67.12,-34.93 -2.34,-0.21 -2.5,0.02 -1.94,2.35 0.07,0.28 0.14,0.56 0.2,0.84 7.01,28.48 14.03,56.96 21.05,85.44 z"
       id="path6" />
    <path
       d="m 357.15,367.63 c 0.73,6.91 1.46,13.83 2.19,20.74 -0.56,2.25 -1.11,4.5 -1.66,6.74 0.78,-0.11 1.56,-0.21 2.34,-0.32 1.27,12 2.54,24 3.8,36 -1.01,4.47 -2,8.92 -2.98,13.35 -8.57,8.5 -16.97,16.86 -25.22,25.07 -20.18,1.7 -40.34,3.89 -60.47,6.56 -5.97,-31.29 -11.94,-62.58 -17.91,-93.88 0.78,-4.22 1.58,-8.47 2.39,-12.73 21.5,-5.45 43.12,-10.38 64.83,-14.8 11.01,4.11 21.91,8.53 32.69,13.27 z m -0.59,61.48 c -1.03,-9.21 -2.06,-18.41 -3.08,-27.62 -6.1,0.82 -12.19,1.69 -18.28,2.59 5.49,-5.64 11.04,-11.33 16.66,-17.08 -0.57,-5.14 -1.15,-10.28 -1.72,-15.42 -9.1,-3.94 -18.28,-7.65 -27.53,-11.13 -18.25,3.64 -36.43,7.66 -54.54,12.04 5.09,28.3 10.18,56.61 15.27,84.91 17.1,-2.47 34.22,-4.6 51.37,-6.38 7.16,-7.19 14.45,-14.5 21.85,-21.91 z M 319.3,398.32 c -4.11,0.69 -8.22,1.41 -12.33,2.14 -0.71,-4.7 -1.42,-9.4 -2.12,-14.11 4.15,-0.8 8.3,-1.59 12.45,-2.35 0.67,4.77 1.33,9.54 2,14.32 z m 4.43,31.69 c -4.02,0.54 -8.04,1.1 -12.06,1.68 -0.8,-5.29 -1.59,-10.58 -2.39,-15.87 4.06,-0.66 8.13,-1.3 12.2,-1.91 0.75,5.37 1.5,10.74 2.25,16.1 z"
       id="path8"
       style="stroke:none;stroke-opacity:1" />
    <path
       d="m 449.36,355.9 c 0.5,14.57 1,29.15 1.49,43.72 l -2.49,4.98 c 0.91,0.73 1.82,1.47 2.73,2.21 0.65,19.03 1.3,38.05 1.95,57.08 -1.26,4.73 -2.51,9.45 -3.75,14.15 -14.84,-0.28 -29.7,-0.29 -44.56,-0.05 -0.32,-4.23 -0.63,-8.45 -0.95,-12.68 -14.37,0.44 -28.75,1.12 -43.12,2.04 -3.9,-34.86 -7.79,-69.73 -11.69,-104.59 1.06,-4.56 2.13,-9.14 3.22,-13.73 21.8,-3.97 43.68,-7.42 65.64,-10.35 10.65,5.42 21.16,11.17 31.53,17.22 z m -7.26,3.7 c -8.75,-5.04 -17.6,-9.86 -26.54,-14.45 -18.44,2.4 -36.84,5.16 -55.17,8.3 3.21,31.47 6.42,62.93 9.62,94.4 10.56,-0.8 21.12,-1.48 31.69,-2.02 -1,-13.32 -2.01,-26.64 -3.01,-39.97 4.35,3.11 8.67,6.28 12.96,9.51 0.93,14.24 1.87,28.49 2.8,42.73 10.52,-0.3 21.03,-0.48 31.55,-0.52 -0.63,-15.94 -1.27,-31.89 -1.9,-47.83 -6.2,-4.98 -12.47,-9.83 -18.8,-14.54 6.05,-0.53 12.11,-1.01 18.16,-1.46 -0.46,-11.38 -0.91,-22.77 -1.36,-34.15 z m -32.37,26.58 c -4.15,0.41 -8.29,0.85 -12.43,1.3 -0.39,-5.2 -0.78,-10.4 -1.17,-15.6 4.19,-0.52 8.38,-1.02 12.57,-1.5 0.34,5.27 0.68,10.54 1.03,15.8 z"
       id="path10" />
    <path
       d="m 495.48,451.01 c -1.44,4.9 -2.86,9.79 -4.26,14.66 -14.97,-0.58 -29.96,-0.89 -44.96,-0.94 -1.52,-38.28 -3.04,-76.55 -4.56,-114.83 1.37,-4.87 2.75,-9.76 4.14,-14.67 16.5,-1.86 33.03,-3.43 49.59,-4.71 0.03,40.16 0.04,80.33 0.05,120.49 z m -7.39,-90.26 c -0.04,-7.7 -0.09,-15.39 -0.13,-23.09 -11.43,0.88 -22.84,1.9 -34.24,3.07 0.23,7.47 0.46,14.93 0.69,22.4 11.21,-0.94 22.44,-1.73 33.68,-2.38 z m 0.48,83.55 c -0.14,-24.05 -0.28,-48.11 -0.41,-72.16 -11.15,0.54 -22.29,1.22 -33.42,2.04 0.71,23.33 1.43,46.67 2.14,70 10.57,-0.09 21.13,-0.05 31.69,0.12 z"
       id="path12" />
    <path
       d="m 583.7,427.82 c -1.81,5.23 -3.61,10.44 -5.39,15.63 -9.97,8.71 -19.74,17.3 -29.31,25.78 -20.06,-1.7 -40.17,-2.92 -60.31,-3.66 -0.23,-39.9 -0.46,-79.81 -0.68,-119.71 1.53,-5.02 3.07,-10.06 4.64,-15.12 22.62,-1.79 45.29,-3.02 68,-3.71 9.26,13.72 18.22,27.87 26.87,42.44 -1.28,19.45 -2.55,38.9 -3.82,58.35 z m -6.83,-3.42 c 1.06,-17.67 2.13,-35.33 3.19,-53 -7.71,-12.77 -15.65,-25.22 -23.83,-37.33 -18.67,0.52 -37.31,1.42 -55.92,2.69 -0.11,35.93 -0.22,71.85 -0.34,107.78 17.16,0.43 34.31,1.2 51.44,2.32 8.35,-7.4 16.83,-14.89 25.46,-22.46 z m -32.21,-5.31 c -4.04,-0.14 -8.09,-0.26 -12.13,-0.37 0.52,-18.96 1.04,-37.91 1.56,-56.87 4.22,-0.09 8.44,-0.17 12.66,-0.22 -0.69,19.15 -1.39,38.3 -2.09,57.46 z"
       id="path14" />
    <path
       d="m 665.24,483.46 c -2.13,5.44 -4.25,10.87 -6.34,16.28 -14.55,-2.76 -29.14,-5.27 -43.77,-7.51 0.48,-5.15 0.95,-10.29 1.43,-15.44 -5.32,-0.74 -10.65,-1.45 -15.98,-2.12 -7.72,-15.7 -15.76,-30.99 -24.13,-45.86 1.73,-28.79 3.46,-57.58 5.19,-86.37 1.88,-5.3 3.78,-10.62 5.7,-15.96 32.57,-0.37 65.19,0.4 97.8,2.3 -6.63,51.56 -13.26,103.12 -19.9,154.68 z m 6.49,-107.82 c -11.21,-0.97 -22.42,-1.81 -33.64,-2.5 -1.74,17.34 -3.49,34.68 -5.23,52.01 -4.03,-0.41 -8.06,-0.81 -12.09,-1.19 1.97,-21.42 3.94,-42.84 5.9,-64.26 15.56,0.67 31.12,1.6 46.68,2.8 1.1,-8.87 2.19,-17.75 3.29,-26.62 -27.36,-1.59 -54.72,-2.38 -82.06,-2.36 -1.79,26.13 -3.58,52.25 -5.38,78.37 7.31,13.08 14.37,26.47 21.18,40.18 6.52,0.73 13.03,1.51 19.53,2.33 -0.52,5.19 -1.04,10.38 -1.57,15.57 10.39,1.46 20.77,3.06 31.12,4.78 4.1,-33.03 8.18,-66.07 12.27,-99.11 z"
       id="path16" />
    <path
       d="m 752.07,484.37 c -2.55,5.69 -5.09,11.38 -7.6,17.04 -28.49,-7.03 -57.19,-13.06 -86.07,-18.08 5.69,-46 11.37,-92 17.06,-137.99 2.26,-5.56 4.55,-11.14 6.85,-16.73 32.61,1.84 65.22,4.81 97.76,8.93 -3.05,15.96 -6.09,31.93 -9.14,47.89 -2.67,5.78 -5.32,11.55 -7.95,17.31 -7.79,-1.31 -15.58,-2.56 -23.38,-3.73 -1.44,8.37 -2.87,16.73 -4.31,25.1 -1.89,2.19 -3.78,4.38 -5.66,6.57 10.54,1.81 21.06,3.75 31.56,5.82 -3.03,15.95 -6.07,31.91 -9.12,47.87 z m -5.22,-9.53 c 1.97,-10.58 3.93,-21.15 5.9,-31.73 -14.64,-2.89 -29.32,-5.53 -44.03,-7.92 1.17,-7.58 2.34,-15.15 3.51,-22.73 5.78,0.84 11.56,1.71 17.34,2.62 1.24,-7.42 2.47,-14.84 3.71,-22.25 -5.88,-0.83 -11.76,-1.62 -17.64,-2.38 1.04,-6.73 2.08,-13.47 3.12,-20.2 15.49,1.76 30.95,3.78 46.4,6.06 1.97,-10.58 3.93,-21.15 5.9,-31.73 -27.29,-3.45 -54.63,-6.09 -81.99,-7.92 -5.45,41.31 -10.89,82.62 -16.34,123.93 24.82,4.02 49.53,8.77 74.12,14.25 z"
       id="path18" />
  </g>
</svg>
