<?xml version="1.0" encoding="UTF-8"?>
<!-- Generator: Adobe Illustrator 26.1.0, SVG Export Plug-In . SVG Version: 6.00 Build 0)  -->
<svg width="821.81" height="459.52" version="1.1" viewBox="0 0 821.81 459.52" xml:space="preserve" xmlns="http://www.w3.org/2000/svg">
<style type="text/css">
	.st0{fill:#FF00AF;}
	.st1{fill:#1C1C1C;}
	.st2{fill-rule:evenodd;clip-rule:evenodd;fill:#FF00AF;}
</style>
<g transform="translate(-88.91,-270.61)">
	
		<path class="st0" d="m134.15 587.61h-45.24v110.3h45.24c18.18 0 32.12-4.88 41.83-14.64s14.56-23.26 14.56-40.51-4.86-30.75-14.56-40.51c-9.71-9.76-23.66-14.64-41.83-14.64zm21.45 79.87c-5.11 5.53-12.42 8.29-21.92 8.29h-18.59v-66h18.59c9.5 0 16.81 2.76 21.92 8.29s7.67 13.76 7.67 24.71-2.55 19.18-7.67 24.71z"/>
		<path class="st0" d="m239.96 616.12c-12.5 0-22.46 3.82-29.9 11.47-7.54 7.54-11.31 17.66-11.31 30.36 0 12.6 3.82 22.72 11.47 30.36 7.64 7.65 17.66 11.47 30.05 11.47 9.81 0 18.23-2.4 25.25-7.21 7.02-4.8 11.62-11.33 13.79-19.6h-22.93c-2.89 5.99-8.26 8.99-16.11 8.99-4.96 0-9.04-1.45-12.24-4.34s-5.22-7.07-6.04-12.55h59.18v-4.8c0-13.43-3.72-24.17-11.15-32.22-7.65-7.95-17.67-11.93-30.06-11.93zm-17.82 33.62c1.75-10.54 7.59-15.8 17.51-15.8 4.85 0 8.83 1.4 11.93 4.18 3.1 2.79 5.06 6.66 5.89 11.62z"/>
		<polygon class="st0" points="315.56 611.01 370.4 611.01 370.4 587.61 289.38 587.61 289.38 697.92 315.56 697.92 315.56 653.15 366.22 653.15 366.22 630.99 315.56 630.99"/>
		<rect class="st0" x="380.94" y="587.61" width="24.17" height="20.45"/>
		<rect class="st0" x="380.94" y="617.98" width="24.17" height="79.94"/>
	
	
		<path class="st1" d="m515.82 639.2c9.81-4.65 14.72-12.44 14.72-23.39 0-8.47-3.12-15.28-9.37-20.45-6.25-5.16-15.47-7.75-27.65-7.75h-52.36v110.3h53.91c13.12 0 23.05-2.81 29.82-8.44 6.76-5.63 10.15-13.5 10.15-23.63 0-5.78-1.7-11.13-5.11-16.03-3.42-4.9-8.12-8.44-14.11-10.61zm-48.49-30.67h24.48c4.02 0 7.15 1.03 9.37 3.1s3.33 4.86 3.33 8.37c0 3.72-1.11 6.66-3.33 8.83s-5.35 3.25-9.37 3.25h-24.48zm36.95 65.22c-2.53 2.17-6.12 3.25-10.77 3.25h-26.18v-25.1h26.18c9.71 0 14.56 4.18 14.56 12.55 0 4.03-1.26 7.13-3.79 9.3z"/>
		<path class="st1" d="m569.26 632.85v-14.87h-23.55v79.94h24.17v-37.18c0-14.46 7.07-21.69 21.23-21.69h6.2v-22c-3.1-0.21-4.86-0.31-5.27-0.31-11.47 0-19.06 5.37-22.78 16.11z"/>
		
			<rect class="st1" x="607.06" y="587.61" width="24.17" height="20.45"/>
			<rect class="st1" x="607.07" y="617.98" width="24.16" height="79.94"/>
		
		<path class="st1" d="m700.33 627.58c-5.48-7.64-13.27-11.47-23.39-11.47-10.74 0-19.21 3.77-25.41 11.31-6.3 7.54-9.45 17.71-9.45 30.52s3.15 22.98 9.45 30.52c6.2 7.54 14.66 11.31 25.41 11.31 10.63 0 18.64-4.08 24.01-12.24v10.38h23.55v-110.3h-24.17zm-16.73 52.83c-11.36 0-17.04-7.28-17.04-21.84 0-7.44 1.5-13.14 4.5-17.12 3-3.97 7.18-5.96 12.55-5.96 11.46 0 17.2 7.49 17.2 22.46-0.02 14.98-5.75 22.46-17.21 22.46z"/>
		<path class="st1" d="m794.05 628.51c-5.27-8.26-13.27-12.39-24.01-12.39-10.43 0-18.85 3.67-25.25 11-6.41 7.54-9.61 17.2-9.61 28.97 0 11.88 3.26 21.53 9.76 28.97 6.51 7.44 15.03 11.15 25.56 11.15 10.22 0 17.86-3.77 22.93-11.31v11.46c0 4.96-1.4 8.81-4.18 11.54-2.79 2.73-6.82 4.11-12.09 4.11-9.61 0-14.72-3.72-15.34-11.16h-23.86c0.51 9.09 4.13 16.24 10.84 21.46 6.71 5.21 16.01 7.82 27.89 7.82 12.91 0 22.95-3.07 30.13-9.22s10.77-14.64 10.77-25.49v-77.46h-23.55v10.55zm-4.64 42.99c-3 3.56-7.23 5.35-12.7 5.35-5.37 0-9.55-1.78-12.55-5.35-3-3.56-4.5-8.6-4.5-15.11 0-6.61 1.5-11.75 4.5-15.41s7.18-5.5 12.55-5.5c5.58 0 9.84 1.76 12.78 5.27s4.41 8.62 4.41 15.34c0 6.71-1.5 11.85-4.49 15.41z"/>
		<path class="st1" d="m910.71 660.27c0-13.43-3.72-24.17-11.15-32.22-7.64-7.95-17.66-11.93-30.05-11.93-12.5 0-22.46 3.82-29.9 11.47-7.54 7.54-11.31 17.66-11.31 30.36 0 12.6 3.82 22.72 11.47 30.36 7.64 7.65 17.66 11.47 30.05 11.47 9.81 0 18.23-2.4 25.25-7.21 7.02-4.8 11.62-11.33 13.79-19.6h-22.93c-2.89 5.99-8.26 8.99-16.11 8.99-4.96 0-9.04-1.45-12.24-4.34s-5.22-7.07-6.04-12.55h59.18v-4.8zm-59.02-10.53c1.75-10.54 7.59-15.8 17.51-15.8 4.85 0 8.83 1.4 11.93 4.18 3.1 2.79 5.06 6.66 5.89 11.62z"/>
	
	
		<path class="st1" d="m264.14 541.65c0.01-0.2 0-0.41 0-0.61 3.94-127.47 108.89-228.48 235.55-228.48 2.45 0 4.92 0.04 7.39 0.11 62.95 1.94 121.36 28.29 164.5 74.17 39.93 42.48 62.29 97 63.85 154.8h41.97c-1.57-68.53-27.96-133.2-75.26-183.53-50.81-54.05-119.62-85.07-193.76-87.37-2.92-0.09-5.8-0.13-8.7-0.13-149.18 0-272.81 118.98-277.45 269.12-0.02 0.64 0 1.27-0.01 1.91h41.92z"/>
	
	<path class="st2" d="m443.93 517.77 23.87 23.88h75.65v-145.44l2.07 0.63c61.69 19.4 106.63 76.92 107.1 144.8h43.67c-0.59-108.05-88.34-195.47-196.53-195.47v165.67l-24.95-24.95-3.19-62.28 26.02-78.33-3.84 0.08c-15 0.48-29.9 2.69-44.4 6.57l-12.59 37.86-35.69-17.9-3.24 1.93c-12.86 7.78-24.79 17-35.55 27.5l66.1 33.12 1.93 37.9-37.89-1.94-33.13-66.09-2.59 2.7c-10.29 10.97-19.29 23.08-26.84 36.09l17.91 35.7-37.88 12.58-0.91 3.57c-3.53 14.34-5.57 29.27-5.73 44.66l78.34-26.02z"/>
</g>
</svg>
